<svg width="32" height="32" viewBox="0 0 32 32" fill="none" xmlns="http://www.w3.org/2000/svg">
<path d="M6.66675 16H9.33341M9.33341 12H22.6667C25.1601 12 26.4054 12 27.3334 12.536C27.9414 12.8871 28.4464 13.392 28.7974 14C29.3334 14.928 29.3334 16.1733 29.3334 18.6667C29.3334 21.16 29.3334 22.4053 28.7974 23.3333C28.4464 23.9414 27.9414 24.4463 27.3334 24.7973C26.4054 25.3333 25.1601 25.3333 22.6667 25.3333H22.1414C21.2254 25.3333 20.7681 25.3333 20.3401 25.2387C19.7664 25.1113 19.2279 24.8591 18.7627 24.5C18.4161 24.2307 18.1227 23.88 17.5361 23.176C17.0694 22.616 16.8347 22.336 16.5667 22.2093C16.3894 22.1261 16.196 22.0829 16.0001 22.0829C15.8042 22.0829 15.6107 22.1261 15.4334 22.2093C15.1654 22.3347 14.9321 22.6147 14.4641 23.176C13.8774 23.88 13.5841 24.2307 13.2374 24.5C12.7723 24.8591 12.2337 25.1113 11.6601 25.2387C11.2334 25.3333 10.7747 25.3333 9.85875 25.3333H9.33341C6.84008 25.3333 5.59475 25.3333 4.66675 24.7973C4.05872 24.4463 3.55381 23.9414 3.20275 23.3333C2.66675 22.4053 2.66675 21.16 2.66675 18.6667C2.66675 16.1733 2.66675 14.928 3.20275 14C3.55381 13.392 4.05872 12.8871 4.66675 12.536C5.59475 12 6.84008 12 9.33341 12Z" stroke="#E06A3B" stroke-width="2" stroke-linecap="round" stroke-linejoin="round"/>
<path d="M29.3334 17.3334V15.7707C29.3334 14.2334 29.3334 13.4641 29.1294 12.7467C29.0169 12.3531 28.8594 11.9737 28.6601 11.6161C28.2987 10.9654 27.7534 10.4214 26.6667 9.33341C25.5801 8.24541 25.0347 7.70141 24.3841 7.34008C24.0265 7.14076 23.6471 6.98328 23.2534 6.87075C22.5361 6.66675 21.7667 6.66675 20.2294 6.66675H11.7707C10.2334 6.66675 9.46408 6.66675 8.74675 6.87075C8.35309 6.98328 7.97371 7.14076 7.61608 7.34008C6.96541 7.70141 6.42141 8.24675 5.33341 9.33341C4.24541 10.4201 3.70141 10.9654 3.34008 11.6161C3.14076 11.9737 2.98328 12.3531 2.87075 12.7467C2.66675 13.4641 2.66675 14.2334 2.66675 15.7707V17.3334" stroke="#E06A3B" stroke-width="2" stroke-linecap="round" stroke-linejoin="round"/>
</svg>
